<?xml version="1.0" encoding="UTF-8"?>
<svg version="1.1" xmlns="http://www.w3.org/2000/svg" width="253" height="625">
<path d="M0 0 C31.35 0 62.7 0 95 0 C99.34080526 33.83846624 99.34080526 33.83846624 101.37902998 49.72751832 C103.10567127 63.18760853 104.83233312 76.6476961 106.55904664 90.10777704 C108.00821825 101.40436802 109.45736593 112.70096206 110.90649414 123.99755859 C111.04166458 125.05127071 111.17683502 126.10498282 111.31610154 127.19062561 C115.24515863 157.81941351 119.17337559 188.44830904 123.10082831 219.0773027 C125.62605121 238.77070729 128.15149395 258.46408368 130.677017 278.15744978 C131.09847916 281.44391685 131.51993448 284.73038479 131.94138885 288.01685286 C138.69691404 340.69555849 145.4586444 393.37345148 152.24189353 446.04859483 C153.5297905 456.04992642 154.81685203 466.05136522 156.10327148 476.05288696 C156.19050213 476.73105914 156.27773279 477.40923131 156.36760679 478.10795416 C157.13737463 484.09250066 157.90710091 490.07705249 158.67669058 496.0616219 C160.59500524 510.9788977 162.51627134 525.8957855 164.44281024 540.81200147 C165.61787956 549.91182537 166.78948012 559.01209127 167.95817167 568.11273646 C168.73881479 574.19043298 169.52343744 580.26759498 170.31150484 586.34433305 C170.77853287 589.9538679 171.24137502 593.56392958 171.70290828 597.17417073 C171.913025 598.81120573 172.1248518 600.44802236 172.33858037 602.08458972 C172.62733527 604.29747052 172.90984042 606.51106443 173.19081116 608.72494507 C173.34839936 609.94701849 173.50598757 611.16909191 173.66835117 612.42819786 C174.02511844 616.27052137 174 620.14114876 174 624 C90.51 624 7.02 624 -79 624 C-77.84379508 605.50072123 -77.84379508 605.50072123 -76.63113123 596.25015795 C-76.54202562 595.56546268 -76.45292 594.88076741 -76.36111421 594.1753238 C-76.26853847 593.46468771 -76.17596273 592.75405162 -76.08058167 592.0218811 C-75.88332039 590.47742316 -75.68651331 588.93290715 -75.49011368 587.3883394 C-74.95430366 583.18483263 -74.41213417 578.98216808 -73.86883414 574.77962375 C-73.28039535 570.21888076 -72.69799625 565.65736589 -72.11482239 561.09594727 C-71.09953341 553.16117924 -70.08044765 545.22690629 -69.05877876 537.29295731 C-67.55334321 525.60218118 -66.053742 513.910662 -64.55536842 502.21897893 C-62.08632642 482.95454247 -59.61259708 463.69071087 -57.13598633 444.42724609 C-54.79591646 426.22574405 -52.45797932 408.0239705 -50.12329102 389.82177734 C-49.98269621 388.72565291 -49.8421014 387.62952847 -49.69724615 386.50018814 C-49.13010305 382.07848283 -48.56297654 377.65677539 -47.99587116 373.23506524 C-34.64283808 269.12214219 -21.246211 165.01481775 -7.84291077 60.90835571 C-7.71826112 59.94017325 -7.59361147 58.97199079 -7.46518456 57.97446947 C-4.97715432 38.64959936 -2.48851039 19.32480829 0 0 Z " fill="#7C9BDA" transform="translate(79,0)"/>
</svg>
