<?xml version="1.0" encoding="UTF-8"?>
<svg version="1.1" xmlns="http://www.w3.org/2000/svg" width="202" height="255">
<path d="M0 0 C1.32 0.66 2.64 1.32 4 2 C4 6.29 4 10.58 4 15 C5.22928223 14.97905273 6.45856445 14.95810547 7.72509766 14.93652344 C12.35078971 14.86330916 16.97643221 14.81790854 21.60253906 14.78027344 C23.59253596 14.76034132 25.58247571 14.73318548 27.57226562 14.69824219 C48.03738976 14.34823503 63.33452398 17.26800448 78.74609375 31.71484375 C91.50492415 44.65057301 95.39569423 59.68022899 95.33988953 77.35832214 C95.32457577 79.20112375 95.30892789 81.04392262 95.29296875 82.88671875 C95.28736376 84.79913498 95.28309794 86.71155556 95.28010559 88.62397766 C95.26872785 93.62332342 95.23932259 98.62240189 95.20599365 103.62164307 C95.17513921 108.73665757 95.16156759 113.85171585 95.14648438 118.96679688 C95.11444525 128.97798112 95.06333581 138.98896821 95 149 C89.17928378 149.02464638 83.35859766 149.0428343 77.5378418 149.05493164 C75.55606559 149.05997267 73.57429311 149.06680538 71.5925293 149.07543945 C68.75047891 149.08751515 65.90847753 149.09323045 63.06640625 149.09765625 C61.72891075 149.10539818 61.72891075 149.10539818 60.36439514 149.11329651 C58.24259399 149.11349177 56.1208922 149.0621003 54 149 C52.06067088 147.06067088 52.84608619 143.37608451 52.84228516 140.72973633 C52.83720444 139.96869598 52.83212372 139.20765564 52.82688904 138.42355347 C52.81616101 136.76477536 52.80755044 135.10598255 52.80076981 133.44718361 C52.7890086 130.81999207 52.76956109 128.19296701 52.74765015 125.56584167 C52.68595496 118.09399987 52.63205061 110.62217234 52.59863281 103.15014648 C52.57765919 98.58417563 52.542328 94.01850344 52.49787521 89.45270348 C52.4837292 87.71326915 52.47499593 85.97378193 52.47182083 84.23429298 C52.46689908 81.7949578 52.44370725 79.35641074 52.41650391 76.91723633 C52.41951004 76.20167068 52.42251617 75.48610504 52.4256134 74.74885559 C52.34869968 70.09283448 51.26031639 67.03334434 49 63 C49 62.34 49 61.68 49 61 C48.21625 60.690625 47.4325 60.38125 46.625 60.0625 C44 59 44 59 42 58 C39.15791974 57.84293669 36.33662693 57.7415043 33.4921875 57.68359375 C32.23125778 57.6524221 32.23125778 57.6524221 30.94485474 57.62062073 C28.25498765 57.55514561 25.56502157 57.4962498 22.875 57.4375 C21.05337511 57.39431284 19.23176029 57.35069848 17.41015625 57.30664062 C12.94020606 57.19946632 8.47015614 57.09819315 4 57 C4 61.29 4 65.58 4 70 C-1 71 -1 71 -3.23130798 70.052948 C-3.98376297 69.55062653 -4.73621796 69.04830505 -5.51147461 68.53076172 C-6.37264389 67.96622284 -7.23381317 67.40168396 -8.12107849 66.82003784 C-9.49780479 65.88431442 -9.49780479 65.88431442 -10.90234375 64.9296875 C-11.85766495 64.29644562 -12.81298615 63.66320374 -13.79725647 63.01077271 C-16.85347376 60.97932554 -19.89513218 58.92711446 -22.9375 56.875 C-24.98286654 55.51433524 -27.02908141 54.15494477 -29.07617188 52.796875 C-31.03982394 51.48812092 -33.0027391 50.17826035 -34.96484375 48.8671875 C-35.88063705 48.25551727 -36.79643036 47.64384705 -37.73997498 47.01364136 C-42.37700915 43.88345621 -46.78389823 40.67949123 -51 37 C-50.63532071 34.39365313 -50.26754951 33.24393446 -48.29440308 31.44494629 C-47.55384674 30.95071167 -46.81329041 30.45647705 -46.05029297 29.94726562 C-45.21207001 29.37987671 -44.37384705 28.81248779 -43.51022339 28.22790527 C-42.14004562 27.32618591 -42.14004562 27.32618591 -40.7421875 26.40625 C-39.80577423 25.77771118 -38.86936096 25.14917236 -37.90457153 24.50158691 C-34.90175669 22.49028374 -31.88843637 20.49534459 -28.875 18.5 C-26.86652084 17.15594361 -24.85870002 15.81090286 -22.8515625 14.46484375 C-17.58706039 10.94589171 -12.32370695 7.42893 -7 4 C-6.32696838 3.54858643 -5.65393677 3.09717285 -4.96051025 2.63208008 C-3.12158203 1.46289062 -3.12158203 1.46289062 0 0 Z M-8.53173828 13.203125 C-9.25233429 13.68362305 -9.9729303 14.16412109 -10.71536255 14.65917969 C-11.88106277 15.44663574 -11.88106277 15.44663574 -13.0703125 16.25 C-13.86654022 16.78270508 -14.66276794 17.31541016 -15.48312378 17.86425781 C-18.0333268 19.57187503 -20.57918333 21.28585193 -23.125 23 C-24.84997858 24.15667043 -26.57523547 25.31292591 -28.30078125 26.46875 C-32.5371024 29.30768961 -36.76953542 32.15234131 -41 35 C-37.20783194 39.06843379 -33.20820097 42.07035854 -28.546875 45.08203125 C-27.49563446 45.77059456 -27.49563446 45.77059456 -26.42315674 46.47306824 C-24.95257541 47.43467079 -23.48010913 48.39339631 -22.00585938 49.34936523 C-19.73918412 50.8195151 -17.47856052 52.29862163 -15.21875 53.77929688 C-13.78679978 54.71406494 -12.35451983 55.64832812 -10.921875 56.58203125 C-10.24276062 57.02569534 -9.56364624 57.46935944 -8.86395264 57.9264679 C-6.13440775 60.04977613 -6.13440775 60.04977613 -3 61 C-2.34 57.7 -1.68 54.4 -1 51 C4.79829005 50.90043882 10.59607242 50.82820654 16.39501953 50.78027344 C18.36385782 50.76027213 20.33263756 50.73306198 22.30126953 50.69824219 C25.14630658 50.64921469 27.99055215 50.62691618 30.8359375 50.609375 C31.70302338 50.58872986 32.57010925 50.56808472 33.46347046 50.54681396 C40.28280431 50.54436158 47.22529015 51.88215307 52.62411499 56.3414917 C57.77965603 62.11576475 59.36887885 68.14903156 59.43237305 75.67944336 C59.44766052 76.77825333 59.44766052 76.77825333 59.46325684 77.89926147 C59.4932074 80.29620184 59.50262486 82.69274143 59.51171875 85.08984375 C59.52857881 86.76137094 59.54673084 88.43288556 59.56611633 90.10438538 C59.61347854 94.48548451 59.64337676 98.86653264 59.66955566 103.24780273 C59.699431 107.72585113 59.74593727 112.20372403 59.79101562 116.68164062 C59.87689199 125.45435512 59.94276794 134.22705182 60 143 C69.57 143 79.14 143 89 143 C89.04541901 133.83688891 89.08201207 124.67385418 89.10362434 115.5106554 C89.11400391 111.25453782 89.12805485 106.99850212 89.15087891 102.74243164 C89.17281741 98.62511594 89.18461228 94.50787835 89.18975449 90.39050865 C89.19341294 88.82985901 89.20055534 87.26921301 89.21146011 85.70859718 C89.34019218 66.49859004 86.93476778 50.98938794 74 36 C61.29591523 23.8462727 46.12190602 20.79934811 29.15234375 20.90234375 C27.80638878 20.90446617 27.80638878 20.90446617 26.4332428 20.90663147 C23.60129286 20.9121749 20.76942555 20.92471642 17.9375 20.9375 C16.00325636 20.94252233 14.06901147 20.94708394 12.13476562 20.95117188 C7.42314583 20.96212571 2.71158687 20.97935047 -2 21 C-2.33 17.7 -2.66 14.4 -3 11 C-5.54554802 11 -6.42622532 11.78963378 -8.53173828 13.203125 Z " fill="#4773CA" transform="translate(52,0)"/>
<path d="M0 0 C2.31 0.33 4.62 0.66 7 1 C7 2.32 7 3.64 7 5 C11.29 5 15.58 5 20 5 C20.66 3.35 21.32 1.7 22 0 C24.31 0.33 26.62 0.66 29 1 C28.67 2.65 28.34 4.3 28 6 C30.31 6 32.62 6 35 6 C35 7.98 35 9.96 35 12 C32.03 12 29.06 12 26 12 C26 12.99 26 13.98 26 15 C29.96 15 33.92 15 38 15 C38 16.98 38 18.96 38 21 C33.71 21 29.42 21 25 21 C25 21.99 25 22.98 25 24 C28.63 24.33 32.26 24.66 36 25 C34.58707905 29.8274799 32.57025846 33.7162359 30 38 C31.65 38.66 33.3 39.32 35 40 C35 44 35 44 33 47 C29.01880905 46.42208519 26.2755575 45.18914835 22.875 43.0625 C22.02679688 42.53785156 21.17859375 42.01320312 20.3046875 41.47265625 C18.52378904 40.33469232 16.7584751 39.17231673 15 38 C15 37.01 15 36.02 15 35 C13.02 35 11.04 35 9 35 C9 38.63 9 42.26 9 46 C7.02 46 5.04 46 3 46 C3 43.03 3 40.06 3 37 C-1.455 37.495 -1.455 37.495 -6 38 C-6.38133299 36.0085944 -6.71325582 34.00720923 -7 32 C-4.95301586 29.95301586 -0.69588759 30.29954307 2 30 C2.33 29.01 2.66 28.02 3 27 C0.03 27.33 -2.94 27.66 -6 28 C-7.64451156 21.5589964 -6.05498079 17.78217394 -3 12 C-4.32 12 -5.64 12 -7 12 C-7 10.02 -7 8.04 -7 6 C-5.02 6 -3.04 6 -1 6 C-0.67 4.02 -0.34 2.04 0 0 Z M4 12 C4 12.33 4 12.66 4 13 C6.475 13.495 6.475 13.495 9 14 C9 16.31 9 18.62 9 21 C9.66 21 10.32 21 11 21 C11.33 19.35 11.66 17.7 12 16 C15.465 15.505 15.465 15.505 19 15 C19.33 14.01 19.66 13.02 20 12 C14.72 12 9.44 12 4 12 Z M2 17 C1.67 18.32 1.34 19.64 1 21 C1.66 21 2.32 21 3 21 C2.67 19.68 2.34 18.36 2 17 Z M13 21 C13 22.98 13 24.96 13 27 C11.68 27 10.36 27 9 27 C9 27.66 9 28.32 9 29 C10.98 29 12.96 29 15 29 C15 30.98 15 32.96 15 35 C15.66 34.67 16.32 34.34 17 34 C17 33.34 17 32.68 17 32 C19.31 32.66 21.62 33.32 24 34 C24.33 33.01 24.66 32.02 25 31 C22.36 31 19.72 31 17 31 C17.33 27.7 17.66 24.4 18 21 C16.35 21 14.7 21 13 21 Z " fill="#4773CA" transform="translate(137,191)"/>
<path d="M0 0 C2.64 0.33 5.28 0.66 8 1 C7.67 3.31 7.34 5.62 7 8 C14.26 8 21.52 8 29 8 C29 9.98 29 11.96 29 14 C21.08 14 13.16 14 5 14 C4.67 15.98 4.34 17.96 4 20 C10.93 20 17.86 20 25 20 C25 22.31 25 24.62 25 27 C21.37 27 17.74 27 14 27 C14 30.63 14 34.26 14 38 C15.39025391 37.98259766 15.39025391 37.98259766 16.80859375 37.96484375 C18.00613281 37.95582031 19.20367187 37.94679687 20.4375 37.9375 C21.63246094 37.92589844 22.82742187 37.91429687 24.05859375 37.90234375 C27 38 27 38 28 39 C28 40.98 28 42.96 28 45 C16.45 45 4.9 45 -7 45 C-7.33 43.02 -7.66 41.04 -8 39 C-8.5775 39.37125 -9.155 39.7425 -9.75 40.125 C-12 41 -12 41 -14.25 40.125 C-14.8275 39.75375 -15.405 39.3825 -16 39 C-15.37473752 35.57944644 -14.83412941 34.81869959 -12.3125 32.0625 C-7.85229584 27.13791623 -5.56707605 21.05356585 -3 15 C-6.96 14.67 -10.92 14.34 -15 14 C-15 12.02 -15 10.04 -15 8 C-10.38 8 -5.76 8 -1 8 C-0.67 5.36 -0.34 2.72 0 0 Z M-2.0234375 29.44921875 C-3.77611202 32.24276732 -5.39564566 35.11871058 -7 38 C-2.38 38 2.24 38 7 38 C7 34.37 7 30.74 7 27 C2.79777074 26.05664241 0.79059153 26.04304848 -2.0234375 29.44921875 Z " fill="#4773CA" transform="translate(95,191)"/>
</svg>
