<?xml version="1.0" encoding="UTF-8"?>
<svg version="1.1" xmlns="http://www.w3.org/2000/svg" width="202" height="255">
<path d="M0 0 C2.56518307 1.19540825 4.83919344 2.51122816 7.2021637 4.06478882 C8.06978836 4.6323288 8.93741302 5.19986877 9.83132935 5.78460693 C10.75542099 6.39607574 11.67951263 7.00754456 12.63160706 7.63754272 C13.5916716 8.26891144 14.55173615 8.90028015 15.54089355 9.55078125 C17.56714903 10.88508911 19.59190181 12.22168136 21.61524963 13.56039429 C24.70929263 15.60606667 27.80971793 17.64178246 30.91090393 19.67660522 C32.88069752 20.97548928 34.85011147 22.27494928 36.81910706 23.57504272 C38.20828087 24.48617325 38.20828087 24.48617325 39.6255188 25.41571045 C40.4899913 25.98955475 41.35446381 26.56339905 42.24513245 27.15463257 C43.38167015 27.90503311 43.38167015 27.90503311 44.54116821 28.67059326 C46.80746212 30.34909847 48.71451881 32.20097333 50.65895081 34.23910522 C49.19138421 37.87270061 47.36673151 39.47517609 44.18238831 41.70785522 C43.19464417 42.40265991 42.20690002 43.0974646 41.18922424 43.81332397 C40.01320393 44.62298997 38.83638589 45.43149801 37.65895081 46.23910522 C36.98851746 46.70203979 36.31808411 47.16497437 35.62733459 47.64193726 C31.01316294 50.82448383 26.37604547 53.97124855 21.72291565 57.0965271 C20.08290545 58.20103047 18.44622847 59.31049774 16.8127594 60.4246521 C14.42768775 62.05107454 12.03295733 63.66224468 9.63551331 65.27035522 C8.90837128 65.77022949 8.18122925 66.27010376 7.43205261 66.78512573 C1.03740967 71.03048033 1.03740967 71.03048033 -3.34104919 70.23910522 C-4.34104919 69.23910522 -4.34104919 69.23910522 -4.43870544 66.29769897 C-4.42710388 65.10273804 -4.41550232 63.9077771 -4.40354919 62.67660522 C-4.39452576 61.47906616 -4.38550232 60.2815271 -4.37620544 59.04769897 C-4.36460388 58.12086304 -4.35300232 57.1940271 -4.34104919 56.23910522 C-9.5010237 56.30817455 -14.66020272 56.39623385 -19.81956482 56.5015564 C-21.57305546 56.53471743 -23.32665058 56.56277665 -25.08030701 56.58554077 C-27.60777618 56.61924992 -30.13429557 56.67157215 -32.66136169 56.72738647 C-33.43972382 56.7337764 -34.21808594 56.74016632 -35.02003479 56.74674988 C-39.83022118 56.87536221 -43.1595893 57.62265223 -47.34104919 60.23910522 C-51.78499122 65.16347341 -52.49337893 68.22435467 -52.53050232 74.68637085 C-52.53879562 75.45398239 -52.54708893 76.22159393 -52.55563354 77.01246643 C-52.57304837 78.68159409 -52.58821127 80.3507464 -52.60140991 82.01991272 C-52.62240518 84.65867559 -52.64943005 87.29731457 -52.67808533 89.93600464 C-52.73782678 95.53699084 -52.78997051 101.1380342 -52.84104919 106.73910522 C-52.90022201 113.22774431 -52.96246526 119.71632209 -53.03292847 126.20484924 C-53.05956091 128.80955041 -53.08034024 131.41425756 -53.10093689 134.01901245 C-53.11753601 135.60995786 -53.1344075 137.20090045 -53.15159607 138.7918396 C-53.15578049 139.5202153 -53.1599649 140.248591 -53.16427612 140.9990387 C-53.22720573 146.0114183 -53.22720573 146.0114183 -54.34104919 148.23910522 C-60.00102966 148.28845448 -65.66088555 148.32480051 -71.32102966 148.34896851 C-73.24748414 148.35904105 -75.17392327 148.37269966 -77.10032654 148.38998413 C-79.86550171 148.41417763 -82.63047519 148.42557558 -85.39573669 148.43441772 C-86.2603653 148.4447403 -87.1249939 148.45506287 -88.01582336 148.46569824 C-90.1255844 148.46609629 -92.23485638 148.36175766 -94.34104919 148.23910522 C-97.22697686 145.35317756 -96.59490529 143.29863351 -96.59983826 139.25765991 C-96.60509521 138.17904694 -96.60509521 138.17904694 -96.61045837 137.0786438 C-96.61929311 134.68932561 -96.61341316 132.30030172 -96.60667419 129.91098022 C-96.60802212 128.24343815 -96.60996371 126.57589645 -96.61247253 124.90835571 C-96.61542758 121.40105473 -96.61112051 117.89385535 -96.60179138 114.38656616 C-96.59050225 109.9285694 -96.59688608 105.47081627 -96.60893631 101.01282883 C-96.61623562 97.56031532 -96.61382859 94.10785748 -96.60868073 90.6553421 C-96.60736086 89.01458964 -96.60893253 87.37383187 -96.61363983 85.73308563 C-96.65538293 67.06178806 -94.95151464 50.6699809 -83.34104919 35.23910522 C-82.66622498 34.31678101 -82.66622498 34.31678101 -81.97776794 33.37582397 C-73.94023944 23.16476664 -60.99625589 16.53515238 -48.34104919 14.23910522 C-44.86823142 13.98757562 -41.41519593 14.00479103 -37.93479919 14.04379272 C-36.4868396 14.04803757 -36.4868396 14.04803757 -35.0096283 14.05236816 C-31.95330442 14.06348398 -28.89728318 14.08857237 -25.84104919 14.11410522 C-23.75772012 14.12414615 -21.67438641 14.13327004 -19.59104919 14.14144897 C-14.50760082 14.16339511 -9.42437617 14.19786505 -4.34104919 14.23910522 C-4.34104919 9.61910522 -4.34104919 4.99910522 -4.34104919 0.23910522 C-2.34104919 -0.76089478 -2.34104919 -0.76089478 0 0 Z M1.65895081 9.23910522 C1.65895081 12.86910522 1.65895081 16.49910522 1.65895081 20.23910522 C0.52054749 20.22863159 -0.61785583 20.21815796 -1.79075623 20.20736694 C-6.08108784 20.17071504 -10.37140613 20.14804319 -14.66184998 20.12924194 C-16.50627482 20.11928597 -18.35068431 20.10571631 -20.1950531 20.08822632 C-41.16170233 19.54723124 -41.16170233 19.54723124 -60.77854919 25.98910522 C-61.79054382 26.52471069 -61.79054382 26.52471069 -62.82298279 27.07113647 C-74.94043959 33.65331306 -82.68661907 43.70891212 -87.21282959 56.75112915 C-89.76198298 65.88689731 -89.72679612 74.63910458 -89.63401794 84.03598022 C-89.62840963 85.72276427 -89.62414539 87.40955327 -89.62115479 89.09634399 C-89.60980309 93.49563537 -89.58042154 97.89462071 -89.54704285 102.29379272 C-89.51613104 106.79895897 -89.50260473 111.30417557 -89.48753357 115.80941772 C-89.45554058 124.61946836 -89.40285409 133.42921324 -89.34104919 142.23910522 C-79.77104919 142.23910522 -70.20104919 142.23910522 -60.34104919 142.23910522 C-60.33170349 139.97873413 -60.32235779 137.71836304 -60.31272888 135.38949585 C-60.27888491 127.90153103 -60.22329487 120.41383966 -60.15714645 112.92609406 C-60.11772253 108.38848982 -60.08550922 103.85107817 -60.0700531 99.31332397 C-60.05485285 94.92994586 -60.02034807 90.54709738 -59.97274017 86.16395569 C-59.95796097 84.49596269 -59.95001017 82.82789407 -59.94916534 81.15983582 C-59.933031 65.26995436 -59.933031 65.26995436 -55.34104919 58.23910522 C-55.01104919 57.24910522 -54.68104919 56.25910522 -54.34104919 55.23910522 C-52.77854919 54.23910522 -52.77854919 54.23910522 -50.34104919 53.23910522 C-49.18540466 52.72952271 -48.02976013 52.21994019 -46.83909607 51.69491577 C-41.85673748 49.84125242 -37.19891724 49.85765109 -31.93479919 49.94613647 C-30.9694928 49.95038132 -30.0041864 49.95462616 -29.0096283 49.95899963 C-25.95314089 49.97567425 -22.89733434 50.01330531 -19.84104919 50.05160522 C-17.75772544 50.06666657 -15.67439127 50.08035243 -13.59104919 50.09262085 C-8.50745705 50.12554099 -3.42436821 50.17724506 1.65895081 50.23910522 C1.65895081 53.53910522 1.65895081 56.83910522 1.65895081 60.23910522 C6.51239293 58.60887829 10.40133754 55.88406186 14.58473206 53.01254272 C15.33232285 52.50486359 16.07991364 51.99718445 16.85015869 51.47412109 C19.22698261 49.85855888 21.59924876 48.23644428 23.97145081 46.61410522 C25.58638849 45.51471094 27.20161969 44.41574768 28.81715393 43.31723022 C32.7678374 40.62950347 36.71444756 37.93589298 40.65895081 35.23910522 C36.60767527 31.88099138 32.36284147 28.94463501 27.98707581 26.03598022 C27.26405273 25.55332703 26.54102966 25.07067383 25.7960968 24.57339478 C24.27734186 23.56043995 22.75781704 22.54863856 21.23756409 21.53793335 C18.90044235 19.98344601 16.56667171 18.42401933 14.23316956 16.86410522 C12.7555024 15.87943389 11.27764459 14.89504859 9.79957581 13.91098022 C8.74809357 13.20796783 8.74809357 13.20796783 7.67536926 12.49075317 C4.8807663 10.25329258 4.8807663 10.25329258 1.65895081 9.23910522 Z " fill="#4773CA" transform="translate(150.34104919433594,0.760894775390625)"/>
<path d="M0 0 C2.3431213 0.25561323 4.67843403 0.59270772 7 1 C7.33 1.66 7.66 2.32 8 3 C7.67 3.99 7.34 4.98 7 6 C8.98 6 10.96 6 13 6 C13 7.98 13 9.96 13 12 C11.68 12.33 10.36 12.66 9 13 C9.33 13.33 9.66 13.66 10 14 C10.04092937 16.33297433 10.04241723 18.66705225 10 21 C10.66 21 11.32 21 12 21 C12 19.02 12 17.04 12 15 C14.64 15 17.28 15 20 15 C20 14.01 20 13.02 20 12 C18.02 12 16.04 12 14 12 C14 10.02 14 8.04 14 6 C16.31 6 18.62 6 21 6 C21.33 4.02 21.66 2.04 22 0 C23.98 0 25.96 0 28 0 C29 3 29 3 28 6 C30.64 6 33.28 6 36 6 C36 7.98 36 9.96 36 12 C33.03 12 30.06 12 27 12 C27 12.66 27 13.32 27 14 C27.78246094 14.06058594 28.56492188 14.12117187 29.37109375 14.18359375 C30.38300781 14.26738281 31.39492187 14.35117188 32.4375 14.4375 C33.95150391 14.55931641 33.95150391 14.55931641 35.49609375 14.68359375 C38 15 38 15 39 16 C39 17.65 39 19.3 39 21 C34.38 21 29.76 21 25 21 C25 22.32 25 23.64 25 25 C28.63 25 32.26 25 36 25 C34.85814266 29.47959418 33.56984833 33.14522751 31 37 C33.475 38.98 33.475 38.98 36 41 C35.25 43.4375 35.25 43.4375 34 46 C32.23046875 46.83203125 32.23046875 46.83203125 30 47 C27.59765625 45.890625 27.59765625 45.890625 25.0625 44.25 C24.22847656 43.71890625 23.39445312 43.1878125 22.53515625 42.640625 C21.28025391 41.82851562 21.28025391 41.82851562 20 41 C18.3368035 39.99423901 16.67113417 38.99251618 15 38 C15.8125 35.5625 15.8125 35.5625 17 33 C20.13349732 31.95550089 20.98968256 32.06576355 24 33 C24.33 32.34 24.66 31.68 25 31 C22.36 31 19.72 31 17 31 C17.33 28.03 17.66 25.06 18 22 C16.68 22 15.36 22 14 22 C14 23.65 14 25.3 14 27 C12.68 27 11.36 27 10 27 C10 27.66 10 28.32 10 29 C11.65 29 13.3 29 15 29 C15 30.98 15 32.96 15 35 C13.35 35 11.7 35 10 35 C10 38.63 10 42.26 10 46 C7.69 46 5.38 46 3 46 C3 43.03 3 40.06 3 37 C0.36 37.33 -2.28 37.66 -5 38 C-5.66 37.01 -6.32 36.02 -7 35 C-6.67 33.68 -6.34 32.36 -6 31 C-3.03 31 -0.06 31 3 31 C3 29.68 3 28.36 3 27 C0.03 27.33 -2.94 27.66 -6 28 C-7.35616438 21.71232877 -7.35616438 21.71232877 -5.625 18.25 C-5.08875 17.5075 -4.5525 16.765 -4 16 C-3.67 15.01 -3.34 14.02 -3 13 C-4.32 12.67 -5.64 12.34 -7 12 C-7 10.02 -7 8.04 -7 6 C-5.02 6 -3.04 6 -1 6 C-0.67 4.02 -0.34 2.04 0 0 Z M2 18 C3 21 3 21 3 21 Z " fill="#4773CA" transform="translate(85,191)"/>
<path d="M0 0 C2.64 0 5.28 0 8 0 C9.48576635 4.01156915 8.80747878 4.48130304 7 9 C13.6 9 20.2 9 27 9 C27 10.98 27 12.96 27 15 C19.74 15.33 12.48 15.66 5 16 C4.34 17.32 3.68 18.64 3 20 C8.94 20.33 14.88 20.66 21 21 C21 28.92 21 36.84 21 45 C18.69 45 16.38 45 14 45 C14 44.01 14 43.02 14 42 C9.38 42 4.76 42 0 42 C0 42.99 0 43.98 0 45 C-2.64 45 -5.28 45 -8 45 C-8.33 41.7 -8.66 38.4 -9 35 C-10.65 35.99 -12.3 36.98 -14 38 C-15.7074998 36.71937515 -17.37373596 35.38232443 -19 34 C-19 33.34 -19 32.68 -19 32 C-17.4609375 30.5546875 -17.4609375 30.5546875 -15.375 28.875 C-10.73121574 24.94056822 -6.739082 20.478164 -4 15 C-8.62 15 -13.24 15 -18 15 C-18 13.02 -18 11.04 -18 9 C-10.08 8.505 -10.08 8.505 -2 8 C-1.34 5.36 -0.68 2.72 0 0 Z M0 27 C0 29.97 0 32.94 0 36 C4.62 36 9.24 36 14 36 C14 33.03 14 30.06 14 27 C9.38 27 4.76 27 0 27 Z " fill="#4773CA" transform="translate(46,191)"/>
</svg>
