<?xml version="1.0" encoding="UTF-8"?>
<svg version="1.1" xmlns="http://www.w3.org/2000/svg" width="151" height="262">
<path d="M0 0 C4.09705164 1.36568388 5.1532323 4.08035179 7.25 7.625 C8.13958618 9.0886649 9.03166831 10.55081472 9.92578125 12.01171875 C10.41385254 12.81013184 10.90192383 13.60854492 11.40478516 14.43115234 C14.3360128 19.1514427 17.39175422 23.7906127 20.4375 28.4375 C21.73188947 30.41528694 23.02616146 32.39315078 24.3203125 34.37109375 C24.94454102 35.32483887 25.56876953 36.27858398 26.21191406 37.26123047 C29.201817 41.84079507 32.16341256 46.43857305 35.12402344 51.03710938 C37.34940009 54.48383204 39.60214045 57.90863221 41.8984375 61.30859375 C42.36660889 62.00275391 42.83478027 62.69691406 43.31713867 63.41210938 C44.20888068 64.73010185 45.10467337 66.04536574 46.00512695 67.35742188 C49 71.78084508 49 71.78084508 49 74 C41.08 74 33.16 74 25 74 C25 102.38 25 130.76 25 160 C9.16 160 -6.68 160 -23 160 C-23 131.62 -23 103.24 -23 74 C-30.92 74 -38.84 74 -47 74 C-45.30449174 69.76122935 -43.42728984 66.44666874 -40.875 62.75 C-36.23339863 55.90883056 -31.75482243 48.97199313 -27.3125 42 C-21.83318145 33.41007427 -16.31907053 24.84454434 -10.75 16.3125 C-10.13036377 15.36310547 -9.51072754 14.41371094 -8.87231445 13.43554688 C-5.93583814 8.94279098 -2.9874698 4.45902051 0 0 Z M0 13 C-1.3718815 14.72371064 -1.3718815 14.72371064 -2.73046875 17.00390625 C-3.55345459 18.31681641 -3.55345459 18.31681641 -4.39306641 19.65625 C-4.98522949 20.6153125 -5.57739258 21.574375 -6.1875 22.5625 C-7.44796633 24.5750037 -8.7097295 26.58669565 -9.97265625 28.59765625 C-10.63023926 29.64711426 -11.28782227 30.69657227 -11.96533203 31.77783203 C-15.29717742 37.05425337 -18.70898735 42.27781974 -22.125 47.5 C-22.75172607 48.4597876 -23.37845215 49.4195752 -24.02416992 50.40844727 C-24.9132605 51.76860962 -24.9132605 51.76860962 -25.8203125 53.15625 C-26.64644043 54.42082031 -26.64644043 54.42082031 -27.48925781 55.7109375 C-28.78064182 57.66763052 -30.09962544 59.60085318 -31.4296875 61.53125 C-33.1789009 63.7936152 -33.1789009 63.7936152 -33 66 C-27.39 66 -21.78 66 -16 66 C-16 94.71 -16 123.42 -16 153 C-4.78 153 6.44 153 18 153 C18 124.29 18 95.58 18 66 C23.61 66 29.22 66 35 66 C33.56076341 62.40190852 32.41237485 59.86388773 30.34765625 56.734375 C29.82381348 55.93507568 29.2999707 55.13577637 28.76025391 54.31225586 C28.19999512 53.46671143 27.63973633 52.62116699 27.0625 51.75 C25.88392426 49.954552 24.70554212 48.15897691 23.52734375 46.36328125 C22.93550293 45.46432129 22.34366211 44.56536133 21.73388672 43.63916016 C19.17911085 39.75051933 16.65093804 35.84490786 14.125 31.9375 C13.67592285 31.24567627 13.2268457 30.55385254 12.76416016 29.84106445 C10.75717708 26.74488503 8.76752043 23.64145475 6.83203125 20.5 C6.20683594 19.489375 5.58164063 18.47875 4.9375 17.4375 C4.41027344 16.56996094 3.88304687 15.70242187 3.33984375 14.80859375 C2.89769531 14.21175781 2.45554688 13.61492188 2 13 C1.34 13 0.68 13 0 13 Z " fill="#4773CA" transform="translate(74,0)"/>
<path d="M0 0 C2.64 0 5.28 0 8 0 C8 0.99 8 1.98 8 3 C13.61 3 19.22 3 25 3 C25 4.98 25 6.96 25 9 C19.06 9 13.12 9 7 9 C7 9.66 7 10.32 7 11 C10.96 11 14.92 11 19 11 C19 20.24 19 29.48 19 39 C21.97 39 24.94 39 28 39 C28 40.98 28 42.96 28 45 C12.82 45 -2.36 45 -18 45 C-18 43.02 -18 41.04 -18 39 C-15.69 39 -13.38 39 -11 39 C-11.00523682 38.18732666 -11.01047363 37.37465332 -11.01586914 36.53735352 C-11.03656994 32.87907678 -11.04963803 29.22081233 -11.0625 25.5625 C-11.07506836 23.6434082 -11.07506836 23.6434082 -11.08789062 21.68554688 C-11.09111328 20.47060547 -11.09433594 19.25566406 -11.09765625 18.00390625 C-11.10289307 16.87799072 -11.10812988 15.7520752 -11.11352539 14.59204102 C-11 12 -11 12 -10 11 C-8.31391034 10.92794489 -6.62499341 10.91613932 -4.9375 10.9375 C-4.01839844 10.94652344 -3.09929688 10.95554688 -2.15234375 10.96484375 C-1.44207031 10.97644531 -0.73179688 10.98804688 0 11 C0 10.34 0 9.68 0 9 C-5.61 9 -11.22 9 -17 9 C-17 4 -17 4 -16 3 C-13.30345146 2.92680379 -10.63308542 2.90757463 -7.9375 2.9375 C-7.17888672 2.94201172 -6.42027344 2.94652344 -5.63867188 2.95117188 C-3.75908129 2.9629932 -1.87953101 2.98092922 0 3 C0 2.01 0 1.02 0 0 Z M-3 17 C-3 17.33 -3 17.66 -3 18 C1.95 18 6.9 18 12 18 C12 17.67 12 17.34 12 17 C7.05 17 2.1 17 -3 17 Z M-3 23 C-3 23.66 -3 24.32 -3 25 C1.95 25 6.9 25 12 25 C12 24.34 12 23.68 12 23 C7.05 23 2.1 23 -3 23 Z M-3 30 C-3 30.33 -3 30.66 -3 31 C1.95 31 6.9 31 12 31 C12 30.67 12 30.34 12 30 C7.05 30 2.1 30 -3 30 Z M-3 37 C-3 37.66 -3 38.32 -3 39 C1.95 39 6.9 39 12 39 C12 38.34 12 37.68 12 37 C7.05 37 2.1 37 -3 37 Z " fill="#4773CA" transform="translate(46,198)"/>
<path d="M0 0 C5.875 2.875 5.875 2.875 7 4 C8.99782126 4.15825258 11.00088834 4.25119171 13.00390625 4.31640625 C14.21884766 4.35830078 15.43378906 4.40019531 16.68554688 4.44335938 C17.96494141 4.48267578 19.24433594 4.52199219 20.5625 4.5625 C21.84576172 4.60568359 23.12902344 4.64886719 24.45117188 4.69335938 C27.63399853 4.799848 30.81690674 4.90185962 34 5 C34 6.98 34 8.96 34 11 C31.36 11 28.72 11 26 11 C26 18.59 26 26.18 26 34 C22.00889681 35.9955516 20.30013434 36.19546065 16 36 C15.34 33.69 14.68 31.38 14 29 C15.65 28.67 17.3 28.34 19 28 C19 22.39 19 16.78 19 11 C14.71 11 10.42 11 6 11 C5.67 9.68 5.34 8.36 5 7 C2.13472421 10.21551323 1.60182973 12.37120225 1.48828125 16.640625 C1.45283203 17.71054688 1.41738281 18.78046875 1.38085938 19.8828125 C1.34702148 21.54957031 1.34702148 21.54957031 1.3125 23.25 C1.27833984 24.37664062 1.24417969 25.50328125 1.20898438 26.6640625 C1.12656986 29.44260901 1.05739702 32.22084252 1 35 C-1.31 35 -3.62 35 -6 35 C-6.33 30.05 -6.66 25.1 -7 20 C-8.32 19.67 -9.64 19.34 -11 19 C-12.25 16.9375 -12.25 16.9375 -13 15 C-12.34644531 14.38125 -12.34644531 14.38125 -11.6796875 13.75 C-7.27883681 9.48250842 -3.54395804 4.99788955 0 0 Z " fill="#4773CA" transform="translate(90,208)"/>
<path d="M0 0 C5.75 1.75 5.75 1.75 8 4 C5.93132437 6.20319933 3.84718206 8.38672975 1.75 10.5625 C0.87021484 11.50512695 0.87021484 11.50512695 -0.02734375 12.46679688 C-0.60097656 13.05654297 -1.17460938 13.64628906 -1.765625 14.25390625 C-2.28930664 14.80377197 -2.81298828 15.3536377 -3.35253906 15.92016602 C-5 17 -5 17 -7.09277344 16.80053711 C-9.60224018 15.74721639 -10.54691778 14.25227744 -12 12 C-11.46890625 11.55269531 -10.9378125 11.10539063 -10.390625 10.64453125 C-6.52111681 7.33285362 -3.01412695 4.14442456 0 0 Z " fill="#4773CA" transform="translate(89,197)"/>
<path d="M0 0 C3.47914941 -0.02887814 6.95826831 -0.04675687 10.4375 -0.0625 C11.92733398 -0.07506836 11.92733398 -0.07506836 13.44726562 -0.08789062 C14.39150391 -0.09111328 15.33574219 -0.09433594 16.30859375 -0.09765625 C17.62041626 -0.10551147 17.62041626 -0.10551147 18.95874023 -0.11352539 C21 0 21 0 22 1 C22 2.65 22 4.3 22 6 C14.74 6 7.48 6 0 6 C0 4.02 0 2.04 0 0 Z " fill="#4773CA" transform="translate(99,200)"/>
</svg>
