<?xml version="1.0" encoding="UTF-8"?>
<svg version="1.1" xmlns="http://www.w3.org/2000/svg" width="233" height="254">
<path d="M0 0 C2.51353745 1.92283578 4.83677576 3.94480862 7.16015625 6.09375 C7.6490332 6.53638184 8.13791016 6.97901367 8.64160156 7.43505859 C39.10293348 35.26589442 54.13113659 76.8035534 58.16015625 117.09375 C69.54515625 117.58875 69.54515625 117.58875 81.16015625 118.09375 C78.4206654 120.83324085 76.0807224 123.02000343 73.02734375 125.2734375 C72.22949463 125.86648682 71.43164551 126.45953613 70.60961914 127.07055664 C69.76004639 127.69696045 68.91047363 128.32336426 68.03515625 128.96875 C62.61435752 132.97283379 57.23260541 136.99364653 52.015625 141.26171875 C51.20818848 141.9160791 50.40075195 142.57043945 49.56884766 143.24462891 C48.02911202 144.49916897 46.50090901 145.76802571 44.98583984 147.05224609 C43.08958317 148.5865982 41.31930809 149.95972277 39.16015625 151.09375 C34.84783515 150.52003477 32.062652 147.52902917 28.84765625 144.71875 C24.12887348 140.66864782 19.28009644 136.85988292 14.28515625 133.15625 C8.86550871 129.12860165 3.48066371 125.06431093 -1.83984375 120.90625 C-2.44554199 120.43646729 -3.05124023 119.96668457 -3.67529297 119.48266602 C-5.08299243 118.37744231 -6.46458207 117.23908512 -7.83984375 116.09375 C-7.83984375 115.76375 -7.83984375 115.43375 -7.83984375 115.09375 C-4.73569673 115.06471423 -1.63158466 115.0469393 1.47265625 115.03125 C2.35373047 115.02287109 3.23480469 115.01449219 4.14257812 115.00585938 C5.41391602 115.00102539 5.41391602 115.00102539 6.7109375 114.99609375 C7.49122314 114.99085693 8.27150879 114.98562012 9.07543945 114.98022461 C11.16015625 115.09375 11.16015625 115.09375 14.16015625 116.09375 C9.48179165 90.25285021 3.60643027 63.97689168 -14.83984375 44.09375 C-15.40058594 43.454375 -15.96132812 42.815 -16.5390625 42.15625 C-24.2355854 33.83180565 -33.93975336 29.0430088 -45.19921875 28.1328125 C-57.3575788 27.9529551 -66.95694166 33.61951156 -75.53515625 41.796875 C-76.29570313 42.55484375 -77.05625 43.3128125 -77.83984375 44.09375 C-78.45601563 44.68671875 -79.0721875 45.2796875 -79.70703125 45.890625 C-104.33731102 71.54243711 -107.27046993 112.58629966 -109.83984375 146.09375 C-115.49983398 146.11842467 -121.15979307 146.13659788 -126.81982422 146.14868164 C-128.74626206 146.15371787 -130.67269606 146.16054712 -132.59912109 146.16918945 C-135.36426743 146.18128608 -138.12936333 146.18698533 -140.89453125 146.19140625 C-142.19147415 146.19914818 -142.19147415 146.19914818 -143.51461792 146.20704651 C-149.61210034 146.20762171 -149.61210034 146.20762171 -151.83984375 145.09375 C-153.48220228 100.38510107 -141.2096797 54.27536924 -112.83984375 19.09375 C-112.1128125 18.18238281 -111.38578125 17.27101562 -110.63671875 16.33203125 C-81.85606289 -17.61848316 -36.94812989 -24.80149572 0 0 Z M-76.83984375 -0.90625 C-77.566875 -0.54789063 -78.29390625 -0.18953125 -79.04296875 0.1796875 C-108.57472553 15.56511323 -126.17574841 47.75623068 -135.9921875 78.29980469 C-141.73093357 97.21518777 -145.99221716 118.24731912 -144.83984375 138.09375 C-138.43824975 138.91413591 -132.22681874 139.22129513 -125.77734375 139.15625 C-124.91173828 139.15173828 -124.04613281 139.14722656 -123.15429688 139.14257812 C-121.04944836 139.13094913 -118.94463617 139.11302073 -116.83984375 139.09375 C-116.76991211 138.38057617 -116.69998047 137.66740234 -116.62792969 136.93261719 C-113.0150129 100.74536384 -106.57776151 59.19711402 -77.9765625 33.4140625 C-67.81343705 25.29197881 -55.05482265 19.62541901 -41.83984375 21.09375 C-26.10527767 23.5592803 -14.15165632 32.37563414 -4.56982422 44.73144531 C10.26772813 65.10521797 16.40776153 88.7529322 21.16015625 113.09375 C21.82406909 116.4276393 22.49231536 119.76064457 23.16015625 123.09375 C20.19015625 123.09375 17.22015625 123.09375 14.16015625 123.09375 C18.52375014 127.74173291 23.42000736 131.53401474 28.47265625 135.40625 C29.30861328 136.05142578 30.14457031 136.69660156 31.00585938 137.36132812 C33.05486857 138.94199236 35.10633069 140.51935229 37.16015625 142.09375 C40.38053768 140.60873475 43.08949182 138.77564484 45.92578125 136.65234375 C46.81523437 135.98654297 47.7046875 135.32074219 48.62109375 134.63476562 C49.54148438 133.94060547 50.461875 133.24644531 51.41015625 132.53125 C52.81394531 131.48420898 52.81394531 131.48420898 54.24609375 130.41601562 C55.57253906 129.41924805 55.57253906 129.41924805 56.92578125 128.40234375 C57.73821289 127.79189209 58.55064453 127.18144043 59.38769531 126.55249023 C59.97260742 126.07110596 60.55751953 125.58972168 61.16015625 125.09375 C61.16015625 124.76375 61.16015625 124.43375 61.16015625 124.09375 C57.86015625 124.09375 54.56015625 124.09375 51.16015625 124.09375 C51.12148438 122.92585938 51.12148438 122.92585938 51.08203125 121.734375 C48.98856965 80.43608704 31.83626949 39.65007943 1.97265625 10.96875 C-11.30658967 -0.85982199 -28.2798592 -8.34370671 -46.15234375 -8.21875 C-47.39346924 -8.21246582 -47.39346924 -8.21246582 -48.65966797 -8.20605469 C-58.84728562 -8.0193446 -67.77675325 -5.5039492 -76.83984375 -0.90625 Z " fill="#4773CA" transform="translate(151.83984375,14.90625)"/>
<path d="M0 0 C9.57 0 19.14 0 29 0 C29.04584845 5.94501577 29.08569247 11.88942111 29.10986328 17.83447266 C29.11993671 19.85793127 29.13359595 21.88137528 29.15087891 23.90478516 C29.17506847 26.80895589 29.18646949 29.71293461 29.1953125 32.6171875 C29.20563507 33.52556366 29.21595764 34.43393982 29.22659302 35.36984253 C29.22681961 36.63092331 29.22681961 36.63092331 29.22705078 37.91748047 C29.231492 38.65916473 29.23593323 39.400849 29.24050903 40.16500854 C29 42 29 42 27 44 C24.67724823 44.40047444 22.34260643 44.7397104 20 45 C18.23537317 41.91190305 18 40.76687864 18 37 C16.02 36.67 14.04 36.34 12 36 C12 36.66 12 37.32 12 38 C9.625 38.1875 9.625 38.1875 7 38 C6.34 37.01 5.68 36.02 5 35 C3.68 37.97 2.36 40.94 1 44 C-1.01822917 42.92578125 -3.03645833 41.8515625 -5.0546875 40.77734375 C-5.69664063 40.52082031 -6.33859375 40.26429688 -7 40 C-7.99 40.495 -7.99 40.495 -9 41 C-11.59260588 37.79352774 -12.20751689 35.57614074 -11.85546875 31.57421875 C-11.65073622 29.9429628 -11.42754984 28.31393397 -11.1875 26.6875 C-11.07857422 25.85154297 -10.96964844 25.01558594 -10.85742188 24.15429688 C-10.58752204 22.10071115 -10.29589839 20.05000107 -10 18 C-11.65 18 -13.3 18 -15 18 C-15 16.02 -15 14.04 -15 12 C-11.37 12 -7.74 12 -4 12 C-3.67 16.29 -3.34 20.58 -3 25 C-2.34 25 -1.68 25 -1 25 C-0.67 16.75 -0.34 8.5 0 0 Z M6 6 C6 9.3 6 12.6 6 16 C7.65 16 9.3 16 11 16 C11 15.34 11 14.68 11 14 C9.68 14 8.36 14 7 14 C7 12.02 7 10.04 7 8 C8.32 8 9.64 8 11 8 C11 7.34 11 6.68 11 6 C9.35 6 7.7 6 6 6 Z M17 6 C17 6.66 17 7.32 17 8 C19.475 8.495 19.475 8.495 22 9 C22 8.01 22 7.02 22 6 C20.35 6 18.7 6 17 6 Z M17 14 C17 14.66 17 15.32 17 16 C18.65 16 20.3 16 22 16 C22 15.34 22 14.68 22 14 C20.35 14 18.7 14 17 14 Z M6 21 C6.33 21.66 6.66 22.32 7 23 C11.62 22.67 16.24 22.34 21 22 C21 26.95 21 31.9 21 37 C21.33 37 21.66 37 22 37 C22 31.72 22 26.44 22 21 C16.72 21 11.44 21 6 21 Z M12 28 C12 28.99 12 29.98 12 31 C12.99 31 13.98 31 15 31 C15 30.01 15 29.02 15 28 C14.01 28 13.02 28 12 28 Z M-4 35 C-3 37 -3 37 -3 37 Z " fill="#4773CB" transform="translate(73,192)"/>
<path d="M0 0 C2.97 0 5.94 0 9 0 C8.34 7.26 7.68 14.52 7 22 C11.62 22 16.24 22 21 22 C21 24.31 21 26.62 21 29 C17.04 29.33 13.08 29.66 9 30 C9.721875 30.53109375 10.44375 31.0621875 11.1875 31.609375 C12.115625 32.31578125 13.04375 33.0221875 14 33.75 C14.928125 34.44609375 15.85625 35.1421875 16.8125 35.859375 C17.534375 36.56578125 18.25625 37.2721875 19 38 C19 42 19 42 17.5 43.75 C17.005 44.1625 16.51 44.575 16 45 C12.7173068 43.50923566 10.06922559 41.61379679 7.25 39.375 C6.45078125 38.74335938 5.6515625 38.11171875 4.828125 37.4609375 C4.22484375 36.97882813 3.6215625 36.49671875 3 36 C0.28173507 37.30212691 -2.18917567 38.75623771 -4.6875 40.4375 C-8.89975214 43.11874524 -13.21804775 44.63847193 -18 46 C-22 41.25 -22 41.25 -22 39 C-21.10796875 38.66226563 -20.2159375 38.32453125 -19.296875 37.9765625 C-18.12640625 37.53054687 -16.9559375 37.08453125 -15.75 36.625 C-14.58984375 36.18414062 -13.4296875 35.74328125 -12.234375 35.2890625 C-9.73790219 34.29409145 -7.37095053 33.25589954 -5 32 C-5 31.34 -5 30.68 -5 30 C-11.27 29.67 -17.54 29.34 -24 29 C-24 26.69 -24 24.38 -24 22 C-21.03 21.67 -18.06 21.34 -15 21 C-16.98 19.68 -18.96 18.36 -21 17 C-19.1875 14 -19.1875 14 -17 11 C-13.36804504 11 -12.25286089 11.95453155 -9.3125 14 C-8.50425781 14.556875 -7.69601563 15.11375 -6.86328125 15.6875 C-5.94095703 16.3371875 -5.94095703 16.3371875 -5 17 C-5.99 19.475 -5.99 19.475 -7 22 C-5.02 22 -3.04 22 -1 22 C-0.67 14.74 -0.34 7.48 0 0 Z " fill="#4773CA" transform="translate(132,191)"/>
<path d="M0 0 C4.61513112 1.31860889 8.09897612 3.21355437 12 6 C10.75023244 9.65316671 10.32901247 10.78065836 7 13 C3.37 10.69 -0.26 8.38 -4 6 C-2.68 4.02 -1.36 2.04 0 0 Z " fill="#4773CA" transform="translate(119,192)"/>
<path d="M0 0 C1.32 2.97 2.64 5.94 4 9 C0 11 0 11 -4 11 C-7.05108798 5.63008515 -7.05108798 5.63008515 -6.8125 2.6875 C-5.25532375 -0.54663528 -3.52682071 0 0 0 Z " fill="#4673CB" transform="translate(68,191)"/>
</svg>
